<?xml version="1.0" encoding="UTF-8"?>
<svg id="Layer_2" data-name="Layer 2" xmlns="http://www.w3.org/2000/svg" viewBox="0 0 64.58 36.91">
  <defs>
    <style>
      .cls-1 {
        fill: #e08e58;
      }

      .cls-1, .cls-2, .cls-3 {
        stroke-width: 0px;
      }

      .cls-2 {
        fill: #7f4b34;
      }

      .cls-3 {
        fill: #9a5e42;
      }
    </style>
  </defs>
  <g id="Layer_1-2" data-name="Layer 1">
    <g>
      <polygon class="cls-1" points="49.91 15.59 54 15.05 57.87 16.34 62.63 16.21 64.58 13.54 60.85 10.34 59.32 7.37 56.05 4.11 56.4 2.25 54.44 .85 51.69 2.42 44.19 0 44.35 .61 42.65 .19 43.28 .78 33.21 1.8 20.17 1.28 7.57 6.69 3.3 15.05 1.03 25.95 0 36.84 5.07 36.84 8.05 30.94 14.83 23.96 10.15 28.78 12.11 36.91 16.47 36.91 17.68 30.89 21.1 24.76 26.78 25.19 29.81 36.91 34.71 36.91 35.38 31.43 37.33 27.95 43.94 36.84 49.36 36.84 44.57 25.37 45.73 20.49 49.91 15.59"/>
      <polygon class="cls-3" points="45.73 20.49 45.73 20.49 43.15 23.32 41.8 24.8 37.33 27.95 43.94 36.84 49.36 36.84 44.57 25.37 45.73 20.49"/>
      <polygon class="cls-2" points="18.27 22.48 19.12 22.99 13.1 24.34 14.22 24.59 10.15 28.78 12.11 36.91 16.47 36.91 17.68 30.89 21.1 24.76 26.78 25.19 22.53 22.98 18.27 22.48"/>
      <polygon class="cls-2" points="45.73 20.49 43.35 25.92 43.22 25.16 41.61 27.79 41.53 27.05 40.47 29.03 43.94 36.84 37.33 27.95 39.65 25.31 39.75 26.22 42.86 22.67 42.89 23.53 45.73 20.49"/>
    </g>
  </g>
</svg>